<?xml version="1.0" encoding="UTF-8"?>
<svg xmlns="http://www.w3.org/2000/svg" width="100" height="100">
<!-- From WikiMedia / WikiPedia https://fr.m.wikipedia.org/wiki/Fichier:Add_document_icon_(the_Noun_Project_27896).svg -->
<path fill="whitesmoke" d="M29,23h36c0.553,0,1-0.448,1-1s-0.447-1-1-1H29c-0.552,0-1,0.448-1,1S28.448,23,29,23z"/>
<path fill="whitesmoke" d="M29,37h36c0.553,0,1-0.448,1-1s-0.447-1-1-1H29c-0.552,0-1,0.448-1,1S28.448,37,29,37z"/>
<path fill="whitesmoke" d="M29,49h36c0.553,0,1-0.448,1-1s-0.447-1-1-1H29c-0.552,0-1,0.448-1,1S28.448,49,29,49z"/>
<path fill="whitesmoke" d="M65,62c0.553,0,1-0.447,1-1s-0.447-1-1-1H29c-0.552,0-1,0.447-1,1s0.448,1,1,1H65z"/>
<path fill="whitesmoke" d="M87.134,68.989C84.295,66.15,80.702,64.534,77,64.117V13c0-0.542-0.291-1.013-0.722-1.277 c-0.104-0.171-0.236-0.325-0.398-0.441l-9.348-8.87c-0.344-0.326-0.813-0.457-1.266-0.385C65.18,2.011,65.092,2,65,2H18.5 C17.671,2,17,2.671,17,3.5V9h-5.5C10.671,9,10,9.671,10,10.5v78c0,0.828,0.671,1.5,1.5,1.5h49.102 c0.68,1.097,1.479,2.14,2.431,3.092c6.656,6.655,17.447,6.655,24.104,0S93.79,75.646,87.134,68.989z M20,5h44v7.5 c0,0.829,0.672,1.5,1.5,1.5H74v50.051c-3.993,0.253-7.915,1.888-10.967,4.938c-3.063,3.063-4.698,7.002-4.941,11.011H20V5z M13,87 V12h4v69.5c0,0.828,0.671,1.5,1.5,1.5h39.667c0.156,1.36,0.479,2.702,0.964,4H13z M86.923,83H77v10.13c0,0.828-0.672,1.5-1.5,1.5 c-0.829,0-1.5-0.672-1.5-1.5V83H63.653c-0.828,0-1.5-0.672-1.5-1.5s0.671-1.5,1.5-1.5H74V69.862c0-0.828,0.672-1.5,1.5-1.5 s1.5,0.672,1.5,1.5V80h9.923c0.828,0,1.5,0.672,1.5,1.5S87.751,83,86.923,83z"/>
</svg>
